<?xml version="1.0" encoding="UTF-8"?>
<svg viewBox="0 0 562.5 1052.3625" xmlns="http://www.w3.org/2000/svg" xmlns:xlink="http://www.w3.org/1999/xlink">
 <defs>
  <linearGradient id="a">
   <stop stop-color="#ffffba" stop-opacity=".61818" offset="0"/>
   <stop stop-color="#fff" stop-opacity="0" offset="1"/>
  </linearGradient>
  <linearGradient id="c">
   <stop stop-opacity="0" offset="0"/>
   <stop offset=".5"/>
   <stop stop-opacity="0" offset="1"/>
  </linearGradient>
  <linearGradient id="b">
   <stop stop-color="#fff100" offset="0"/>
   <stop stop-color="#ffcf00" offset="1"/>
  </linearGradient>
  <linearGradient id="v" x1="374.29" x2="407.88" y1="208.32" y2="441.82" gradientTransform="matrix(.76694 0 0 1.0986 39.481 -5.2033)" gradientUnits="userSpaceOnUse">
   <stop stop-color="#fff100" offset="0"/>
   <stop stop-color="#ffb400" offset="1"/>
  </linearGradient>
  <linearGradient id="n" x1="427.48" x2="563.04" y1="-47.602" y2="241.46" gradientUnits="userSpaceOnUse">
   <stop stop-color="#900000" stop-opacity=".4" offset="0"/>
   <stop stop-color="#fff" stop-opacity="0" offset="1"/>
  </linearGradient>
  <linearGradient id="aa" x1="733.26" x2="100.05" y1="42.72" y2="676.14" gradientTransform="scale(.6102 1.6388)" gradientUnits="userSpaceOnUse" xlink:href="#a"/>
  <linearGradient id="z" x1="594.4" x2="322.56" y1="612.45" y2="352.79" gradientUnits="userSpaceOnUse" xlink:href="#a"/>
  <linearGradient id="y" x1="519.28" x2="337.3" y1="224.93" y2="410.05" gradientTransform="scale(1.1301 .88488)" gradientUnits="userSpaceOnUse" xlink:href="#a"/>
  <linearGradient id="x" x1="416.57" x2="406.05" y1="554.01" y2="310.4" gradientTransform="matrix(.65914 0 0 1.1716 38.589 70.008)" gradientUnits="userSpaceOnUse" xlink:href="#a"/>
  <linearGradient id="w" x1="474.59" x2="465.48" y1="3.4196" y2="194.74" gradientTransform="matrix(.63764 0 0 1.1976 44.305 18.54)" gradientUnits="userSpaceOnUse" xlink:href="#a"/>
  <linearGradient id="u" x1="129.33" x2="129.33" y1="2307.9" y2="2469.8" gradientTransform="matrix(.51475 .05688 -.020039 .18134 307.05 -48.707)" gradientUnits="userSpaceOnUse" xlink:href="#c"/>
  <linearGradient id="t" x1="321" x2="321" y1="339.59" y2="369.13" gradientUnits="userSpaceOnUse" xlink:href="#c"/>
  <linearGradient id="s" x1="129.33" x2="129.33" y1="2307.9" y2="2469.8" gradientTransform="matrix(.56993 -.1106 .034758 .17911 173.25 -133.1)" gradientUnits="userSpaceOnUse" xlink:href="#c"/>
  <linearGradient id="r" x2="0" y1="301.57" y2="331.12" gradientUnits="userSpaceOnUse" xlink:href="#c"/>
  <linearGradient id="q" x1="374.29" x2="407.88" y1="208.32" y2="441.82" gradientTransform="matrix(.69025 0 0 .98874 66.875 29.659)" gradientUnits="userSpaceOnUse" xlink:href="#a"/>
  <linearGradient id="p" x1="18.663" x2="273.92" gradientUnits="userSpaceOnUse" xlink:href="#a"/>
  <linearGradient id="o" x1="50.052" x2="231.3" y1="615.61" y2="437" gradientTransform="matrix(1.1332,0,0,.88246,-4,4)" gradientUnits="userSpaceOnUse" xlink:href="#a"/>
  <linearGradient id="m" x1="80.083" x2="195.1" gradientUnits="userSpaceOnUse" xlink:href="#a"/>
  <linearGradient id="l" x1="634.17" x2="235.61" y1="319.24" y2="735.12" gradientTransform="scale(.80281 1.2456)" gradientUnits="userSpaceOnUse" xlink:href="#a"/>
  <radialGradient id="e" cx="505.73" cy="180.58" r="242.78" fx="402.11" gradientUnits="userSpaceOnUse">
   <stop stop-color="#cdc100" offset="0"/>
   <stop stop-color="#e8db00" offset=".3"/>
   <stop stop-color="#fae500" offset=".3"/>
   <stop stop-color="#fcca00" offset=".85"/>
   <stop stop-color="#ff9800" offset="1"/>
  </radialGradient>
  <radialGradient id="k" cx="374.15" cy="404.86" r="336.18" gradientUnits="userSpaceOnUse" xlink:href="#b"/>
  <radialGradient id="j" cx="288.53" cy="360.2" r="242" gradientTransform="scale(1.2386,.80736)" gradientUnits="userSpaceOnUse" xlink:href="#b"/>
  <radialGradient id="i" cx="444.48" cy="338.39" r="305.9" fx="440.97" fy="336.39" gradientTransform="scale(.75032 1.3328)" gradientUnits="userSpaceOnUse" xlink:href="#b"/>
  <radialGradient id="h" cx="486.73" cy="196.38" r="196.57" fx="482.93" fy="195.56" gradientTransform="scale(.72967 1.3705)" gradientUnits="userSpaceOnUse" xlink:href="#b"/>
  <radialGradient id="g" cx="255.83" cy="405.53" r="254.81" gradientTransform="scale(1.0993 .90965)" gradientUnits="userSpaceOnUse" xlink:href="#b"/>
  <radialGradient id="f" cx="201.03" cy="244.7" r="227.61" gradientUnits="userSpaceOnUse" xlink:href="#b"/>
  <radialGradient id="d" cx="573.57" cy="307.96" r="242.78" fx="469.96" gradientUnits="userSpaceOnUse" xlink:href="#a"/>
 </defs>
 <g transform="matrix(1.0846 0 0 1.0846 -69.215 -14.85)">
  <path d="m178.35 942.06s129.23-440.73 173.84-631.82 141.15-263.32 159.23-261.08-125.29 135.82-160.49 356.91-147.07 541.77-147.07 541.77l-25.5-5.7749z" fill="#007200" fill-rule="evenodd" stroke="#000" stroke-width=".28812"/>
  <path d="m178.35 942.06s132.91-440.73 177.51-631.82 142.55-260.9 153.39-258.39c10.446 2.4197-126.81 134.96-162.02 356.05s-143.39 539.93-143.39 539.93l-25.5-5.7749z" fill="url(#aa)" fill-rule="evenodd" opacity=".42"/>
  <path d="m357.73 213.33s-96.108-3.2138-114.47 31.22c-41.626 78.049-45.47 374.45-49.431 447.48-3.9025 72.846-18.211 257.56-18.211 257.56l23.415 2.6016s15.259-192.57 14.309-267.97c-0.84389-66.981 14.309-377.24 40.325-418.86 25.648-41.037 106.67-28.618 106.67-28.618l-2.6016-23.415z" fill="#007200" fill-rule="evenodd" stroke="#000" stroke-width=".28812"/>
  <g transform="matrix(.59347 0 0 .59347 200.77 20.376)">
   <path d="m310.9 426.67s36.423 78.049 62.439 104.07 165.74 56.837 176.91 70.244c13.008 15.61 54.634 49.431 54.634 49.431s-2.6016-59.838-5.2033-88.456c-2.0262-22.288-72.846-163.9-111.87-182.11s-127.48-36.423-127.48-36.423 2.6016 26.016-7.8049 41.626-41.626 41.626-41.626 41.626z" fill="url(#k)" fill-rule="evenodd" stroke="#000" stroke-width=".48549"/>
   <path d="m310.9 426.67s49.431 75.447 75.447 101.46 152.73 49.032 163.9 62.439c13.008 15.61 46.829 41.626 46.829 41.626s-2.6016-33.821-5.2033-62.439c-2.0262-22.288-67.643-153.5-106.67-171.71s-124.88-54.634-124.88-54.634 2.6016 26.016-7.8049 41.626-41.626 41.626-41.626 41.626z" fill="url(#z)" fill-rule="evenodd"/>
   <path d="m357.73 377.24s59.838 31.22 115.77 31.22 120.98-114.47 131.38-135.29 15.61-80.651 15.61-80.651-49.431 15.61-72.846 15.61-61.138-13.008-98.862-2.6016-104.07 65.041-104.07 65.041 23.415 33.821 23.415 49.431-10.407 57.236-10.407 57.236z" fill="url(#j)" fill-rule="evenodd" stroke="#000" stroke-width=".48549"/>
   <path d="m357.73 377.24s52.033 26.016 107.97 26.016 120.98-111.87 131.38-132.68 18.211-72.846 18.211-72.846-41.626 18.211-65.041 18.211-58.537-13.008-96.261-2.6016-109.27 57.236-109.27 57.236 23.415 33.821 23.415 49.431-10.407 57.236-10.407 57.236z" fill="url(#y)" fill-rule="evenodd"/>
   <path d="m282.28 405.86s-54.634 83.252-59.838 119.68 20.813 119.68 33.821 148.29 28.618 75.447 28.618 75.447 15.61-28.618 36.423-62.439 93.659-119.68 93.659-163.9-52.033-117.07-52.033-117.07-23.415 13.008-41.626 10.407-39.025-10.407-39.025-10.407z" fill="url(#i)" fill-rule="evenodd" stroke="#000" stroke-width=".48549"/>
   <path d="m286.65 426.67s-48.012 73.161-52.585 105.17 18.29 105.17 29.722 130.32 25.149 66.302 25.149 66.302 13.718-25.149 32.008-54.871 82.306-105.17 82.306-144.04-45.726-102.88-45.726-102.88-20.577 11.431-36.581 9.1452-34.294-9.1452-34.294-9.1452z" fill="url(#x)" fill-rule="evenodd"/>
   <path d="m297.89 278.38s-23.415-98.862-23.415-117.07 10.581-77.65 27.317-93.659c29.919-28.618 48.13-65.041 48.13-65.041s13.542 38.869 39.025 62.439c14.324 13.249 37.113 62.385 39.025 91.057 2.6016 39.025-41.626 135.29-41.626 135.29s-20.813-23.415-39.025-23.415-49.431 10.407-49.431 10.407z" fill="url(#h)" fill-rule="evenodd" stroke="#000" stroke-width=".48549"/>
   <path d="m304.62 261.8s-20.462-86.393-20.462-102.31 9.246-67.856 23.872-81.846c26.145-25.009 42.06-56.838 42.06-56.838s11.834 33.967 34.103 54.564c12.518 11.578 32.432 54.517 34.103 79.573 2.2735 34.103-36.376 118.22-36.376 118.22s-18.188-20.462-34.103-20.462-43.197 9.094-43.197 9.094z" fill="url(#w)" fill-rule="evenodd"/>
   <path d="m272.93 278.38 98.641-39.025s-19.728 20.813-17.536 101.46 21.92 106.67 21.92 106.67l-98.641-33.821s-24.112-7.8049-26.304-62.439 21.92-72.846 21.92-72.846z" fill="url(#v)" fill-rule="evenodd" stroke="#888" stroke-width="1.5536"/>
   <path d="m288.6 388.8 73.207 8.0894" fill="none" opacity=".11" stroke="url(#u)" stroke-linecap="round" stroke-width="97.098"/>
   <path d="m252.17 355.42h136.05" fill="none" opacity=".075" stroke="url(#t)" stroke-width="97.098"/>
   <path d="m289.18 289.44 81.054-15.73" fill="none" opacity=".07" stroke="url(#s)" stroke-linecap="round" stroke-width="97.098"/>
   <path d="m286.16 317.4h109.31" fill="none" opacity=".09" stroke="url(#r)" stroke-linecap="round" stroke-width="97.098"/>
   <path d="m276.98 284.88 88.777-35.122s-17.755 18.732-15.783 91.317 19.728 96 19.728 96l-88.777-30.439s-21.701-7.0244-23.674-56.195 19.728-65.561 19.728-65.561z" fill="url(#q)" fill-rule="evenodd" opacity=".78"/>
   <path d="m249.76 361.63s-158.7 44.228-189.92 93.659-41.626 119.68-41.626 119.68 97.004 8.1428 137.89 5.2033c58.025-4.172 106.67-33.821 127.48-75.447s15.61-80.651 15.61-80.651-10.407-7.8049-36.423-26.016c-10.407-31.22-13.008-36.423-13.008-36.423z" fill="url(#g)" fill-rule="evenodd" stroke="#000" stroke-width=".48549"/>
   <path d="m5.2033 117.07s59.838-15.61 114.47-23.415 93.659 13.008 109.27 33.821 62.439 143.09 62.439 143.09-26.016 6.5041-36.423 44.228 2.6016 59.838 2.6016 59.838-114.47-5.2033-148.29-31.22-98.862-78.049-88.456-132.68-15.61-93.659-15.61-93.659z" fill="url(#f)" fill-rule="evenodd" stroke="#000" stroke-width=".48549"/>
   <path d="m18.807 125.75s53.312-13.908 101.99-20.861 83.445 11.59 97.353 30.133 55.63 127.49 55.63 127.49-23.179 5.7948-32.451 39.405 2.3179 53.312 2.3179 53.312-101.99-4.6358-132.12-27.815-88.081-69.538-78.809-118.21-13.908-83.445-13.908-83.445z" fill="url(#p)" fill-rule="evenodd" opacity=".71"/>
   <path d="m235.7 377.77s-141.12 39.329-168.88 83.285-37.016 106.42-37.016 106.42 86.259 7.2409 122.61 4.627c51.598-3.71 94.853-30.075 113.36-67.091s13.881-71.718 13.881-71.718-9.2539-6.9404-32.389-23.135c-9.2539-27.762-11.567-32.389-11.567-32.389z" fill="url(#o)" fill-rule="evenodd"/>
   <path transform="matrix(.39008 0 0 .53855 219.9 248.09)" d="m607.42 364.32c-6.8931 4.0002-12.259 27.219-19.612 30.624s-36.473-3.036-44.371-1.3919-14.198 18.71-22.25 19.493-32.225-11.421-40.291-11.508-30.683 13.484-38.523 11.742-14.404-20.865-21.975-23.375-28.373-2.3118-35.411-6.4282-7.0598-18.594-13.258-23.503-41.395-9.5465-47.122-15.033-6.2154-29.986-11.233-36.419-25.903-6.183-29.37-13.494 2.7057-43.116 0.04485-50.598-14.48-21.158-16.297-29.011 15.063-20.668 14.917-28.694-24.308-23.72-23.351-31.771 27.371-30.811 29.745-38.612-19.461-21.625-16.228-29.038 37.276-19.487 41.797-26.128-1.9967-25.245 3.2071-31.371 33.004-7.4543 38.949-12.753 12.641-37.312 19.306-41.845 32.543 7.4218 39.848 4.1644 18.447-35.588 26.244-37.803 19.111 20.528 27.002 19.588 25.068-17.003 33.063-16.649 22.605 23.04 30.648 24.417 30.039-10.599 37.608-7.9459 23.802 23.479 30.921 27.325 23.765-1.1328 29.989 3.8774 9.1816 26.566 14.878 32.271 44.999 7.2727 49.556 14.031-3.9877 35.312-0.16624 42.399 17.509 7.872 19.815 15.488-2.6743 32.405-1.4742 40.269 24.257 22.937 24.728 31.015-32.847 33.648-33.455 41.602 27.734 21.852 25.469 29.53-30.856 15.006-33.981 22.397 5.781 43.694 1.2919 50.289-34.117 0.05444-39.583 5.7934 0.32849 33.244-6.0459 38.274-38.139 4.7787-45.032 8.7789z" fill="url(#e)"/>
   <path transform="matrix(.34693 0 0 .47897 241.43 258.66)" d="m607.42 364.32c-6.8931 4.0002-12.259 27.219-19.612 30.624s-36.473-3.036-44.371-1.3919-14.198 18.71-22.25 19.493-32.225-11.421-40.291-11.508-30.683 13.484-38.523 11.742-14.404-20.865-21.975-23.375-28.373-2.3118-35.411-6.4282-7.0598-18.594-13.258-23.503-41.395-9.5465-47.122-15.033-6.2154-29.986-11.233-36.419-25.903-6.183-29.37-13.494 2.7057-43.116 0.04485-50.598-14.48-21.158-16.297-29.011 15.063-20.668 14.917-28.694-24.308-23.72-23.351-31.771 27.371-30.811 29.745-38.612-19.461-21.625-16.228-29.038 37.276-19.487 41.797-26.128-1.9967-25.245 3.2071-31.371 33.004-7.4543 38.949-12.753 12.641-37.312 19.306-41.845 32.543 7.4218 39.848 4.1644 18.447-35.588 26.244-37.803 19.111 20.528 27.002 19.588 25.068-17.003 33.063-16.649 22.605 23.04 30.648 24.417 30.039-10.599 37.608-7.9459 23.802 23.479 30.921 27.325 23.765-1.1328 29.989 3.8774 9.1816 26.566 14.878 32.271 44.999 7.2727 49.556 14.031-3.9877 35.312-0.16624 42.399 17.509 7.872 19.815 15.488-2.6743 32.405-1.4742 40.269 24.257 22.937 24.728 31.015-32.847 33.648-33.455 41.602 27.734 21.852 25.469 29.53-30.856 15.006-33.981 22.397 5.781 43.694 1.2919 50.289-34.117 0.05444-39.583 5.7934 0.32849 33.244-6.0459 38.274-38.139 4.7787-45.032 8.7789z" fill="url(#d)"/>
   <path transform="matrix(.34693 0 0 .47897 241.43 258.66)" d="m607.42 364.32c-6.8931 4.0002-12.259 27.219-19.612 30.624s-36.473-3.036-44.371-1.3919-14.198 18.71-22.25 19.493-32.225-11.421-40.291-11.508-30.683 13.484-38.523 11.742-14.404-20.865-21.975-23.375-28.373-2.3118-35.411-6.4282-7.0598-18.594-13.258-23.503-41.395-9.5465-47.122-15.033-6.2154-29.986-11.233-36.419-25.903-6.183-29.37-13.494 2.7057-43.116 0.04485-50.598-14.48-21.158-16.297-29.011 15.063-20.668 14.917-28.694-24.308-23.72-23.351-31.771 27.371-30.811 29.745-38.612-19.461-21.625-16.228-29.038 37.276-19.487 41.797-26.128-1.9967-25.245 3.2071-31.371 33.004-7.4543 38.949-12.753 12.641-37.312 19.306-41.845 32.543 7.4218 39.848 4.1644 18.447-35.588 26.244-37.803 19.111 20.528 27.002 19.588 25.068-17.003 33.063-16.649 22.605 23.04 30.648 24.417 30.039-10.599 37.608-7.9459 23.802 23.479 30.921 27.325 23.765-1.1328 29.989 3.8774 9.1816 26.566 14.878 32.271 44.999 7.2727 49.556 14.031-3.9877 35.312-0.16624 42.399 17.509 7.872 19.815 15.488-2.6743 32.405-1.4742 40.269 24.257 22.937 24.728 31.015-32.847 33.648-33.455 41.602 27.734 21.852 25.469 29.53-30.856 15.006-33.981 22.397 5.781 43.694 1.2919 50.289-34.117 0.05444-39.583 5.7934 0.32849 33.244-6.0459 38.274-38.139 4.7787-45.032 8.7789z" fill="url(#n)" opacity=".57"/>
  </g>
  <path d="m168.93 959.3s-28.618-239.35-28.618-431.87c1e-5 -196.23-75.447-444.88-57.236-444.88s85.822 249.64 88.456 473.5c2.6016 221.14 23.415 405.86 23.415 405.86l-26.016-2.6016z" fill="#007200" fill-rule="evenodd" stroke="#000" stroke-width=".28812"/>
  <path d="m192.19 961.43s56.966-217.55 158.82-385.28 185.62-206.05 202.1-198.3-72.834 8.9635-175.09 208.12-157.87 385.2-163.39 388.88l-22.437-13.424z" fill="#007200" fill-rule="evenodd" stroke="#000" stroke-width=".28812"/>
  <path d="m168.93 959.3s-23.099-239.35-23.099-431.87c1e-5 -196.23-73.464-439.81-60.915-437.52 14.411 2.6266 78.463 240.44 81.097 464.3 2.6016 221.14 28.934 407.7 28.934 407.7l-26.016-2.6016z" fill="url(#m)" fill-rule="evenodd" opacity=".285"/>
  <path d="m197.71 954.08s54.048-206.29 155.9-374.02c96.651-162.52 176.51-204.75 191.69-199.6 16.481 7.7484-70.232 7.6627-172.49 206.82s-147.15 376.54-152.67 380.22l-22.437-13.424z" fill="url(#l)" fill-rule="evenodd" opacity=".52"/>
 </g>
</svg>
